<?xml version="1.0" encoding="UTF-8" standalone="no"?>
<!DOCTYPE svg PUBLIC "-//W3C//DTD SVG 1.1//EN" "http://www.w3.org/Graphics/SVG/1.1/DTD/svg11.dtd">
<svg xmlns="http://www.w3.org/2000/svg" version="1.1" viewBox="0.00 0.00 118.00 108.00">
<g stroke-width="2.00" fill="none" stroke-linecap="butt">
<path stroke="#52757f" vector-effect="non-scaling-stroke" d="
  M 57.9342 8.9099
  A 45.51 45.03 -92.4 0 0 14.8495 56.2657
  A 45.51 45.03 -92.4 0 0 61.7458 99.8501
  A 45.51 45.03 -92.4 0 0 104.8305 52.4943
  A 45.51 45.03 -92.4 0 0 57.9342 8.9099"
/>
<path stroke="#296772" vector-effect="non-scaling-stroke" d="
  M 62.21 16.06
  L 62.21 37.26
  A 0.60 0.60 0.0 0 0 62.96 37.84
  L 73.48 35.17
  A 1.37 1.37 0.0 0 0 74.43 33.41
  Q 70.80 22.81 62.77 15.80
  A 0.34 0.34 0.0 0 0 62.21 16.06"
/>
<path stroke="#296772" vector-effect="non-scaling-stroke" d="
  M 47.82 16.48
  Q 39.44 19.36 32.87 25.37
  A 1.08 1.07 -47.4 0 0 32.93 27.02
  L 39.22 31.88
  A 0.60 0.60 0.0 0 0 40.16 31.57
  C 41.66 26.26 44.70 21.86 48.24 17.04
  A 0.37 0.36 8.4 0 0 47.82 16.48"
/>
<path stroke="#296772" vector-effect="non-scaling-stroke" d="
  M 56.82 16.70
  A 0.33 0.32 68.9 0 0 56.28 16.46
  Q 48.67 23.27 45.33 33.47
  A 1.31 1.31 0.0 0 0 46.26 35.14
  L 56.37 37.57
  A 0.58 0.57 6.4 0 0 57.08 37.01
  L 56.82 16.70"
/>
<path stroke="#296772" vector-effect="non-scaling-stroke" d="
  M 72.25 16.56
  A 0.36 0.36 0.0 0 0 71.83 17.10
  C 75.15 21.89 78.01 26.25 79.33 31.47
  A 0.58 0.58 0.0 0 0 80.24 31.79
  L 86.50 27.22
  A 1.06 1.05 48.8 0 0 86.60 25.61
  Q 80.35 19.58 72.25 16.56"
/>
<path stroke="#296772" vector-effect="non-scaling-stroke" d="
  M 35.51 52.16
  A 0.78 0.77 -88.8 0 0 36.28 51.41
  Q 36.63 43.98 38.28 38.41
  A 1.00 0.99 -64.4 0 0 37.91 37.32
  L 28.82 30.78
  A 0.35 0.34 -53.1 0 0 28.34 30.85
  Q 21.58 39.75 20.69 51.44
  A 0.74 0.73 -87.8 0 0 21.42 52.24
  L 35.51 52.16"
/>
<path stroke="#296772" vector-effect="non-scaling-stroke" d="
  M 84.19 52.21
  L 98.31 52.21
  A 0.75 0.73 87.5 0 0 99.04 51.40
  Q 98.08 39.70 91.25 30.82
  A 0.35 0.34 52.8 0 0 90.77 30.75
  L 81.70 37.36
  A 1.00 0.99 64.0 0 0 81.33 38.45
  Q 83.02 44.02 83.42 51.47
  A 0.78 0.77 88.4 0 0 84.19 52.21"
/>
<path stroke="#296772" vector-effect="non-scaling-stroke" d="
  M 43.74 39.86
  A 0.46 0.45 14.0 0 0 43.14 40.22
  L 41.60 51.40
  A 0.57 0.57 0.0 0 0 42.15 52.05
  L 56.37 52.21
  A 0.58 0.58 0.0 0 0 56.96 51.64
  L 57.06 43.13
  A 0.64 0.64 0.0 0 0 56.43 42.48
  Q 50.12 42.24 43.74 39.86"
/>
<path stroke="#296772" vector-effect="non-scaling-stroke" d="
  M 75.90 39.82
  Q 69.36 42.19 62.92 42.38
  A 0.65 0.65 0.0 0 0 62.27 43.03
  L 62.29 51.72
  A 0.59 0.59 0.0 0 0 62.89 52.31
  L 77.41 52.28
  A 0.59 0.58 85.9 0 0 77.98 51.62
  L 76.51 40.19
  A 0.46 0.46 0.0 0 0 75.90 39.82"
/>
<path stroke="#296772" vector-effect="non-scaling-stroke" d="
  M 75.92 70.70
  A 0.47 0.47 0.0 0 0 76.55 70.33
  L 78.19 58.76
  A 0.59 0.59 0.0 0 0 77.62 58.07
  L 62.88 57.84
  A 0.60 0.60 0.0 0 0 62.27 58.43
  L 62.13 67.25
  A 0.66 0.66 0.0 0 0 62.77 67.93
  Q 69.31 68.21 75.92 70.70"
/>
<path stroke="#296772" vector-effect="non-scaling-stroke" d="
  M 35.24 57.97
  L 21.49 57.97
  A 0.70 0.69 88.1 0 0 20.80 58.72
  Q 21.58 69.63 28.42 78.50
  A 0.94 0.94 0.0 0 0 29.72 78.69
  L 37.32 73.15
  A 1.09 1.09 0.0 0 0 37.75 72.14
  L 36.05 58.68
  A 0.82 0.81 -3.6 0 0 35.24 57.97"
/>
<path stroke="#296772" vector-effect="non-scaling-stroke" d="
  M 43.46 70.46
  Q 49.96 68.12 56.36 67.95
  A 0.65 0.65 0.0 0 0 57.00 67.30
  L 57.00 58.67
  A 0.59 0.59 0.0 0 0 56.41 58.08
  L 41.99 58.08
  A 0.58 0.58 0.0 0 0 41.42 58.74
  L 42.85 70.09
  A 0.46 0.45 -13.3 0 0 43.46 70.46"
/>
<path stroke="#296772" vector-effect="non-scaling-stroke" d="
  M 83.42 58.59
  Q 83.53 65.89 81.54 72.48
  A 0.68 0.68 0.0 0 0 81.85 73.26
  L 90.26 78.12
  A 0.61 0.61 0.0 0 0 91.04 77.96
  Q 97.81 68.95 99.23 58.55
  A 0.47 0.47 0.0 0 0 98.76 58.01
  L 83.99 58.01
  A 0.58 0.57 -90.0 0 0 83.42 58.59"
/>
<path stroke="#296772" vector-effect="non-scaling-stroke" d="
  M 56.93 91.93
  L 56.93 73.93
  A 0.69 0.69 0.0 0 0 56.18 73.24
  Q 50.86 73.70 45.18 75.71
  A 0.42 0.41 72.3 0 0 44.92 76.22
  Q 47.52 85.61 55.72 92.50
  A 0.74 0.74 0.0 0 0 56.93 91.93"
/>
<path stroke="#296772" vector-effect="non-scaling-stroke" d="
  M 62.17 92.30
  A 0.75 0.75 0.0 0 0 63.40 92.88
  Q 71.75 85.84 74.38 76.26
  A 0.43 0.42 -72.4 0 0 74.11 75.74
  Q 68.32 73.71 62.90 73.25
  A 0.71 0.71 0.0 0 0 62.13 73.95
  L 62.17 92.30"
/>
<path stroke="#296772" vector-effect="non-scaling-stroke" d="
  M 45.98 91.65
  A 0.31 0.31 0.0 0 0 46.35 91.19
  C 43.46 87.03 40.99 83.23 39.85 78.71
  A 0.51 0.51 0.0 0 0 39.06 78.42
  L 33.63 82.39
  A 0.92 0.91 48.9 0 0 33.54 83.78
  Q 38.96 89.02 45.98 91.65"
/>
<path stroke="#296772" vector-effect="non-scaling-stroke" d="
  M 73.21 91.61
  Q 80.35 88.82 85.81 83.39
  A 0.94 0.93 -49.7 0 0 85.70 81.97
  L 80.09 77.99
  A 0.52 0.52 0.0 0 0 79.29 78.29
  C 78.18 82.94 75.71 86.85 72.82 91.14
  A 0.32 0.32 0.0 0 0 73.21 91.61"
/>
</g>
<path fill="#8fd0e7" d="
  M 118.00 0.00
  L 118.00 108.00
  L 0.00 108.00
  L 0.00 0.00
  L 118.00 0.00
  Z
  M 57.9342 8.9099
  A 45.51 45.03 -92.4 0 0 14.8495 56.2657
  A 45.51 45.03 -92.4 0 0 61.7458 99.8501
  A 45.51 45.03 -92.4 0 0 104.8305 52.4943
  A 45.51 45.03 -92.4 0 0 57.9342 8.9099
  Z"
/>
<path fill="#151a16" d="
  M 57.9342 8.9099
  A 45.51 45.03 -92.4 0 1 104.8305 52.4943
  A 45.51 45.03 -92.4 0 1 61.7458 99.8501
  A 45.51 45.03 -92.4 0 1 14.8495 56.2657
  A 45.51 45.03 -92.4 0 1 57.9342 8.9099
  Z
  M 62.21 16.06
  L 62.21 37.26
  A 0.60 0.60 0.0 0 0 62.96 37.84
  L 73.48 35.17
  A 1.37 1.37 0.0 0 0 74.43 33.41
  Q 70.80 22.81 62.77 15.80
  A 0.34 0.34 0.0 0 0 62.21 16.06
  Z
  M 47.82 16.48
  Q 39.44 19.36 32.87 25.37
  A 1.08 1.07 -47.4 0 0 32.93 27.02
  L 39.22 31.88
  A 0.60 0.60 0.0 0 0 40.16 31.57
  C 41.66 26.26 44.70 21.86 48.24 17.04
  A 0.37 0.36 8.4 0 0 47.82 16.48
  Z
  M 56.82 16.70
  A 0.33 0.32 68.9 0 0 56.28 16.46
  Q 48.67 23.27 45.33 33.47
  A 1.31 1.31 0.0 0 0 46.26 35.14
  L 56.37 37.57
  A 0.58 0.57 6.4 0 0 57.08 37.01
  L 56.82 16.70
  Z
  M 72.25 16.56
  A 0.36 0.36 0.0 0 0 71.83 17.10
  C 75.15 21.89 78.01 26.25 79.33 31.47
  A 0.58 0.58 0.0 0 0 80.24 31.79
  L 86.50 27.22
  A 1.06 1.05 48.8 0 0 86.60 25.61
  Q 80.35 19.58 72.25 16.56
  Z
  M 35.51 52.16
  A 0.78 0.77 -88.8 0 0 36.28 51.41
  Q 36.63 43.98 38.28 38.41
  A 1.00 0.99 -64.4 0 0 37.91 37.32
  L 28.82 30.78
  A 0.35 0.34 -53.1 0 0 28.34 30.85
  Q 21.58 39.75 20.69 51.44
  A 0.74 0.73 -87.8 0 0 21.42 52.24
  L 35.51 52.16
  Z
  M 84.19 52.21
  L 98.31 52.21
  A 0.75 0.73 87.5 0 0 99.04 51.40
  Q 98.08 39.70 91.25 30.82
  A 0.35 0.34 52.8 0 0 90.77 30.75
  L 81.70 37.36
  A 1.00 0.99 64.0 0 0 81.33 38.45
  Q 83.02 44.02 83.42 51.47
  A 0.78 0.77 88.4 0 0 84.19 52.21
  Z
  M 43.74 39.86
  A 0.46 0.45 14.0 0 0 43.14 40.22
  L 41.60 51.40
  A 0.57 0.57 0.0 0 0 42.15 52.05
  L 56.37 52.21
  A 0.58 0.58 0.0 0 0 56.96 51.64
  L 57.06 43.13
  A 0.64 0.64 0.0 0 0 56.43 42.48
  Q 50.12 42.24 43.74 39.86
  Z
  M 75.90 39.82
  Q 69.36 42.19 62.92 42.38
  A 0.65 0.65 0.0 0 0 62.27 43.03
  L 62.29 51.72
  A 0.59 0.59 0.0 0 0 62.89 52.31
  L 77.41 52.28
  A 0.59 0.58 85.9 0 0 77.98 51.62
  L 76.51 40.19
  A 0.46 0.46 0.0 0 0 75.90 39.82
  Z
  M 75.92 70.70
  A 0.47 0.47 0.0 0 0 76.55 70.33
  L 78.19 58.76
  A 0.59 0.59 0.0 0 0 77.62 58.07
  L 62.88 57.84
  A 0.60 0.60 0.0 0 0 62.27 58.43
  L 62.13 67.25
  A 0.66 0.66 0.0 0 0 62.77 67.93
  Q 69.31 68.21 75.92 70.70
  Z
  M 35.24 57.97
  L 21.49 57.97
  A 0.70 0.69 88.1 0 0 20.80 58.72
  Q 21.58 69.63 28.42 78.50
  A 0.94 0.94 0.0 0 0 29.72 78.69
  L 37.32 73.15
  A 1.09 1.09 0.0 0 0 37.75 72.14
  L 36.05 58.68
  A 0.82 0.81 -3.6 0 0 35.24 57.97
  Z
  M 43.46 70.46
  Q 49.96 68.12 56.36 67.95
  A 0.65 0.65 0.0 0 0 57.00 67.30
  L 57.00 58.67
  A 0.59 0.59 0.0 0 0 56.41 58.08
  L 41.99 58.08
  A 0.58 0.58 0.0 0 0 41.42 58.74
  L 42.85 70.09
  A 0.46 0.45 -13.3 0 0 43.46 70.46
  Z
  M 83.42 58.59
  Q 83.53 65.89 81.54 72.48
  A 0.68 0.68 0.0 0 0 81.85 73.26
  L 90.26 78.12
  A 0.61 0.61 0.0 0 0 91.04 77.96
  Q 97.81 68.95 99.23 58.55
  A 0.47 0.47 0.0 0 0 98.76 58.01
  L 83.99 58.01
  A 0.58 0.57 -90.0 0 0 83.42 58.59
  Z
  M 56.93 91.93
  L 56.93 73.93
  A 0.69 0.69 0.0 0 0 56.18 73.24
  Q 50.86 73.70 45.18 75.71
  A 0.42 0.41 72.3 0 0 44.92 76.22
  Q 47.52 85.61 55.72 92.50
  A 0.74 0.74 0.0 0 0 56.93 91.93
  Z
  M 62.17 92.30
  A 0.75 0.75 0.0 0 0 63.40 92.88
  Q 71.75 85.84 74.38 76.26
  A 0.43 0.42 -72.4 0 0 74.11 75.74
  Q 68.32 73.71 62.90 73.25
  A 0.71 0.71 0.0 0 0 62.13 73.95
  L 62.17 92.30
  Z
  M 45.98 91.65
  A 0.31 0.31 0.0 0 0 46.35 91.19
  C 43.46 87.03 40.99 83.23 39.85 78.71
  A 0.51 0.51 0.0 0 0 39.06 78.42
  L 33.63 82.39
  A 0.92 0.91 48.9 0 0 33.54 83.78
  Q 38.96 89.02 45.98 91.65
  Z
  M 73.21 91.61
  Q 80.35 88.82 85.81 83.39
  A 0.94 0.93 -49.7 0 0 85.70 81.97
  L 80.09 77.99
  A 0.52 0.52 0.0 0 0 79.29 78.29
  C 78.18 82.94 75.71 86.85 72.82 91.14
  A 0.32 0.32 0.0 0 0 73.21 91.61
  Z"
/>
<path fill="#3db4ce" d="
  M 62.21 16.06
  A 0.34 0.34 0.0 0 1 62.77 15.80
  Q 70.80 22.81 74.43 33.41
  A 1.37 1.37 0.0 0 1 73.48 35.17
  L 62.96 37.84
  A 0.60 0.60 0.0 0 1 62.21 37.26
  L 62.21 16.06
  Z"
/>
<path fill="#3db4ce" d="
  M 48.24 17.04
  C 44.70 21.86 41.66 26.26 40.16 31.57
  A 0.60 0.60 0.0 0 1 39.22 31.88
  L 32.93 27.02
  A 1.08 1.07 -47.4 0 1 32.87 25.37
  Q 39.44 19.36 47.82 16.48
  A 0.37 0.36 8.4 0 1 48.24 17.04
  Z"
/>
<path fill="#3db4ce" d="
  M 56.82 16.70
  L 57.08 37.01
  A 0.58 0.57 6.4 0 1 56.37 37.57
  L 46.26 35.14
  A 1.31 1.31 0.0 0 1 45.33 33.47
  Q 48.67 23.27 56.28 16.46
  A 0.33 0.32 68.9 0 1 56.82 16.70
  Z"
/>
<path fill="#3db4ce" d="
  M 72.25 16.56
  Q 80.35 19.58 86.60 25.61
  A 1.06 1.05 48.8 0 1 86.50 27.22
  L 80.24 31.79
  A 0.58 0.58 0.0 0 1 79.33 31.47
  C 78.01 26.25 75.15 21.89 71.83 17.10
  A 0.36 0.36 0.0 0 1 72.25 16.56
  Z"
/>
<path fill="#3db4ce" d="
  M 35.51 52.16
  L 21.42 52.24
  A 0.74 0.73 -87.8 0 1 20.69 51.44
  Q 21.58 39.75 28.34 30.85
  A 0.35 0.34 -53.1 0 1 28.82 30.78
  L 37.91 37.32
  A 1.00 0.99 -64.4 0 1 38.28 38.41
  Q 36.63 43.98 36.28 51.41
  A 0.78 0.77 -88.8 0 1 35.51 52.16
  Z"
/>
<path fill="#3db4ce" d="
  M 83.42 51.47
  Q 83.02 44.02 81.33 38.45
  A 1.00 0.99 64.0 0 1 81.70 37.36
  L 90.77 30.75
  A 0.35 0.34 52.8 0 1 91.25 30.82
  Q 98.08 39.70 99.04 51.40
  A 0.75 0.73 87.5 0 1 98.31 52.21
  L 84.19 52.21
  A 0.78 0.77 88.4 0 1 83.42 51.47
  Z"
/>
<path fill="#3db4ce" d="
  M 43.74 39.86
  Q 50.12 42.24 56.43 42.48
  A 0.64 0.64 0.0 0 1 57.06 43.13
  L 56.96 51.64
  A 0.58 0.58 0.0 0 1 56.37 52.21
  L 42.15 52.05
  A 0.57 0.57 0.0 0 1 41.60 51.40
  L 43.14 40.22
  A 0.46 0.45 14.0 0 1 43.74 39.86
  Z"
/>
<path fill="#3db4ce" d="
  M 75.90 39.82
  A 0.46 0.46 0.0 0 1 76.51 40.19
  L 77.98 51.62
  A 0.59 0.58 85.9 0 1 77.41 52.28
  L 62.89 52.31
  A 0.59 0.59 0.0 0 1 62.29 51.72
  L 62.27 43.03
  A 0.65 0.65 0.0 0 1 62.92 42.38
  Q 69.36 42.19 75.90 39.82
  Z"
/>
<path fill="#3db4ce" d="
  M 75.92 70.70
  Q 69.31 68.21 62.77 67.93
  A 0.66 0.66 0.0 0 1 62.13 67.25
  L 62.27 58.43
  A 0.60 0.60 0.0 0 1 62.88 57.84
  L 77.62 58.07
  A 0.59 0.59 0.0 0 1 78.19 58.76
  L 76.55 70.33
  A 0.47 0.47 0.0 0 1 75.92 70.70
  Z"
/>
<path fill="#3db4ce" d="
  M 36.05 58.68
  L 37.75 72.14
  A 1.09 1.09 0.0 0 1 37.32 73.15
  L 29.72 78.69
  A 0.94 0.94 0.0 0 1 28.42 78.50
  Q 21.58 69.63 20.80 58.72
  A 0.70 0.69 88.1 0 1 21.49 57.97
  L 35.24 57.97
  A 0.82 0.81 -3.6 0 1 36.05 58.68
  Z"
/>
<path fill="#3db4ce" d="
  M 43.46 70.46
  A 0.46 0.45 -13.3 0 1 42.85 70.09
  L 41.42 58.74
  A 0.58 0.58 0.0 0 1 41.99 58.08
  L 56.41 58.08
  A 0.59 0.59 0.0 0 1 57.00 58.67
  L 57.00 67.30
  A 0.65 0.65 0.0 0 1 56.36 67.95
  Q 49.96 68.12 43.46 70.46
  Z"
/>
<path fill="#3db4ce" d="
  M 83.42 58.59
  A 0.58 0.57 90.0 0 1 83.99 58.01
  L 98.76 58.01
  A 0.47 0.47 0.0 0 1 99.23 58.55
  Q 97.81 68.95 91.04 77.96
  A 0.61 0.61 0.0 0 1 90.26 78.12
  L 81.85 73.26
  A 0.68 0.68 0.0 0 1 81.54 72.48
  Q 83.53 65.89 83.42 58.59
  Z"
/>
<path fill="#3db4ce" d="
  M 56.93 91.93
  A 0.74 0.74 0.0 0 1 55.72 92.50
  Q 47.52 85.61 44.92 76.22
  A 0.42 0.41 72.3 0 1 45.18 75.71
  Q 50.86 73.70 56.18 73.24
  A 0.69 0.69 0.0 0 1 56.93 73.93
  L 56.93 91.93
  Z"
/>
<path fill="#3db4ce" d="
  M 62.17 92.30
  L 62.13 73.95
  A 0.71 0.71 0.0 0 1 62.90 73.25
  Q 68.32 73.71 74.11 75.74
  A 0.43 0.42 -72.4 0 1 74.38 76.26
  Q 71.75 85.84 63.40 92.88
  A 0.75 0.75 0.0 0 1 62.17 92.30
  Z"
/>
<path fill="#3db4ce" d="
  M 45.98 91.65
  Q 38.96 89.02 33.54 83.78
  A 0.92 0.91 48.9 0 1 33.63 82.39
  L 39.06 78.42
  A 0.51 0.51 0.0 0 1 39.85 78.71
  C 40.99 83.23 43.46 87.03 46.35 91.19
  A 0.31 0.31 0.0 0 1 45.98 91.65
  Z"
/>
<path fill="#3db4ce" d="
  M 73.21 91.61
  A 0.32 0.32 0.0 0 1 72.82 91.14
  C 75.71 86.85 78.18 82.94 79.29 78.29
  A 0.52 0.52 0.0 0 1 80.09 77.99
  L 85.70 81.97
  A 0.94 0.93 -49.7 0 1 85.81 83.39
  Q 80.35 88.82 73.21 91.61
  Z"
/>
</svg>
