<?xml version="1.0" encoding="UTF-8" standalone="no"?>
<!DOCTYPE svg PUBLIC "-//W3C//DTD SVG 1.1//EN" "http://www.w3.org/Graphics/SVG/1.1/DTD/svg11.dtd">
<svg xmlns="http://www.w3.org/2000/svg" version="1.1" viewBox="0.00 0.00 170.00 142.00">
<g stroke-width="2.00" fill="none" stroke-linecap="butt">
<path stroke="#8a7b4f" vector-effect="non-scaling-stroke" d="
  M 74.76 35.80
  A 17.36 17.36 0.0 0 0 57.40 18.44
  A 17.36 17.36 0.0 0 0 40.04 35.80
  A 17.36 17.36 0.0 0 0 57.40 53.16
  A 17.36 17.36 0.0 0 0 74.76 35.80"
/>
<path stroke="#8a7b4f" vector-effect="non-scaling-stroke" d="
  M 145.70 33.06
  A 2.65 2.65 0.0 0 0 143.05 30.41
  L 124.47 30.41
  A 2.65 2.65 0.0 0 0 121.82 33.06
  L 121.82 108.36
  A 2.65 2.65 0.0 0 0 124.47 111.01
  L 143.05 111.01
  A 2.65 2.65 0.0 0 0 145.70 108.36
  L 145.70 33.06"
/>
<path stroke="#8a7b4f" vector-effect="non-scaling-stroke" d="
  M 57.32 123.57
  Q 70.88 123.54 71.25 123.51
  Q 73.70 123.29 73.77 120.76
  Q 73.89 116.65 73.83 111.52
  A 0.58 0.57 90.0 0 1 74.40 110.94
  Q 82.42 110.93 84.27 110.90
  C 86.73 110.86 88.23 109.77 88.35 107.45
  Q 88.37 107.13 88.40 83.79
  Q 88.41 75.88 86.93 71.85
  Q 83.03 61.25 71.55 57.69
  C 67.45 56.43 62.99 56.88 57.16 56.89
  C 51.33 56.91 46.86 56.48 42.77 57.76
  Q 31.31 61.38 27.46 72.00
  Q 26.00 76.03 26.05 83.94
  Q 26.19 107.28 26.21 107.60
  C 26.34 109.92 27.85 111.00 30.31 111.03
  Q 32.16 111.05 40.18 111.02
  A 0.58 0.57 89.7 0 1 40.75 111.60
  Q 40.72 116.73 40.86 120.84
  Q 40.94 123.37 43.39 123.58
  Q 43.76 123.61 57.32 123.57"
/>
<path stroke="#8a7b4f" vector-effect="non-scaling-stroke" d="
  M 118.86 61.24
  A 2.56 2.56 0.0 0 0 116.30 58.68
  L 97.92 58.68
  A 2.56 2.56 0.0 0 0 95.36 61.24
  L 95.36 108.46
  A 2.56 2.56 0.0 0 0 97.92 111.02
  L 116.30 111.02
  A 2.56 2.56 0.0 0 0 118.86 108.46
  L 118.86 61.24"
/>
<path stroke="#846732" vector-effect="non-scaling-stroke" d="
  M 54.8699 25.2565
  A 10.93 10.78 -103.6 0 0 46.9623 38.4148
  A 10.93 10.78 -103.6 0 0 60.0101 46.5035
  A 10.93 10.78 -103.6 0 0 67.9177 33.3452
  A 10.93 10.78 -103.6 0 0 54.8699 25.2565"
/>
<path stroke="#846732" vector-effect="non-scaling-stroke" d="
  M 139.16 37.53
  A 0.59 0.59 0.0 0 0 138.57 36.94
  L 128.03 36.94
  A 0.59 0.59 0.0 0 0 127.44 37.53
  L 127.44 104.05
  A 0.59 0.59 0.0 0 0 128.03 104.64
  L 138.57 104.64
  A 0.59 0.59 0.0 0 0 139.16 104.05
  L 139.16 37.53"
/>
<path stroke="#846732" vector-effect="non-scaling-stroke" d="
  M 57.46 117.10
  Q 66.36 117.07 66.78 117.07
  A 0.42 0.42 0.0 0 0 67.20 116.65
  L 67.20 88.88
  A 3.04 3.03 90.0 0 1 70.23 85.84
  L 70.63 85.84
  A 3.20 3.20 0.0 0 1 73.83 89.04
  L 73.83 103.98
  A 0.60 0.60 0.0 0 0 74.43 104.58
  L 81.57 104.58
  A 0.64 0.63 89.1 0 0 82.20 103.92
  Q 82.01 98.44 82.13 81.23
  Q 82.22 67.74 70.16 63.85
  C 66.54 62.69 62.26 63.12 57.29 63.13
  C 52.32 63.15 48.04 62.75 44.43 63.94
  Q 32.39 67.90 32.57 81.39
  Q 32.80 98.60 32.64 104.08
  A 0.64 0.63 -89.5 0 0 33.28 104.74
  L 40.42 104.69
  A 0.60 0.60 0.0 0 0 41.01 104.09
  L 40.92 89.15
  A 3.20 3.20 0.0 0 1 44.10 85.93
  L 44.50 85.92
  A 3.04 3.03 89.6 0 1 47.55 88.94
  L 47.73 116.71
  A 0.42 0.42 0.0 0 0 48.15 117.13
  Q 48.57 117.13 57.46 117.10"
/>
<path stroke="#846732" vector-effect="non-scaling-stroke" d="
  M 112.25 65.45
  A 0.43 0.43 0.0 0 0 111.82 65.02
  L 101.66 65.02
  A 0.43 0.43 0.0 0 0 101.23 65.45
  L 101.23 104.21
  A 0.43 0.43 0.0 0 0 101.66 104.64
  L 111.82 104.64
  A 0.43 0.43 0.0 0 0 112.25 104.21
  L 112.25 65.45"
/>
</g>
<path fill="#fbdc8b" d="
  M 170.00 0.00
  L 170.00 142.00
  L 0.00 142.00
  L 0.00 0.00
  L 170.00 0.00
  Z
  M 74.76 35.80
  A 17.36 17.36 0.0 0 0 57.40 18.44
  A 17.36 17.36 0.0 0 0 40.04 35.80
  A 17.36 17.36 0.0 0 0 57.40 53.16
  A 17.36 17.36 0.0 0 0 74.76 35.80
  Z
  M 145.70 33.06
  A 2.65 2.65 0.0 0 0 143.05 30.41
  L 124.47 30.41
  A 2.65 2.65 0.0 0 0 121.82 33.06
  L 121.82 108.36
  A 2.65 2.65 0.0 0 0 124.47 111.01
  L 143.05 111.01
  A 2.65 2.65 0.0 0 0 145.70 108.36
  L 145.70 33.06
  Z
  M 57.32 123.57
  Q 70.88 123.54 71.25 123.51
  Q 73.70 123.29 73.77 120.76
  Q 73.89 116.65 73.83 111.52
  A 0.58 0.57 90.0 0 1 74.40 110.94
  Q 82.42 110.93 84.27 110.90
  C 86.73 110.86 88.23 109.77 88.35 107.45
  Q 88.37 107.13 88.40 83.79
  Q 88.41 75.88 86.93 71.85
  Q 83.03 61.25 71.55 57.69
  C 67.45 56.43 62.99 56.88 57.16 56.89
  C 51.33 56.91 46.86 56.48 42.77 57.76
  Q 31.31 61.38 27.46 72.00
  Q 26.00 76.03 26.05 83.94
  Q 26.19 107.28 26.21 107.60
  C 26.34 109.92 27.85 111.00 30.31 111.03
  Q 32.16 111.05 40.18 111.02
  A 0.58 0.57 89.7 0 1 40.75 111.60
  Q 40.72 116.73 40.86 120.84
  Q 40.94 123.37 43.39 123.58
  Q 43.76 123.61 57.32 123.57
  Z
  M 118.86 61.24
  A 2.56 2.56 0.0 0 0 116.30 58.68
  L 97.92 58.68
  A 2.56 2.56 0.0 0 0 95.36 61.24
  L 95.36 108.46
  A 2.56 2.56 0.0 0 0 97.92 111.02
  L 116.30 111.02
  A 2.56 2.56 0.0 0 0 118.86 108.46
  L 118.86 61.24
  Z"
/>
<path fill="#191913" d="
  M 74.76 35.80
  A 17.36 17.36 0.0 0 1 57.40 53.16
  A 17.36 17.36 0.0 0 1 40.04 35.80
  A 17.36 17.36 0.0 0 1 57.40 18.44
  A 17.36 17.36 0.0 0 1 74.76 35.80
  Z
  M 54.8699 25.2565
  A 10.93 10.78 -103.6 0 0 46.9623 38.4148
  A 10.93 10.78 -103.6 0 0 60.0101 46.5035
  A 10.93 10.78 -103.6 0 0 67.9177 33.3452
  A 10.93 10.78 -103.6 0 0 54.8699 25.2565
  Z"
/>
<ellipse fill="#eeb550" cx="0.00" cy="0.00" transform="translate(57.44,35.88) rotate(-103.6)" rx="10.93" ry="10.78"/>
<path fill="#191913" d="
  M 145.70 108.36
  A 2.65 2.65 0.0 0 1 143.05 111.01
  L 124.47 111.01
  A 2.65 2.65 0.0 0 1 121.82 108.36
  L 121.82 33.06
  A 2.65 2.65 0.0 0 1 124.47 30.41
  L 143.05 30.41
  A 2.65 2.65 0.0 0 1 145.70 33.06
  L 145.70 108.36
  Z
  M 139.16 37.53
  A 0.59 0.59 0.0 0 0 138.57 36.94
  L 128.03 36.94
  A 0.59 0.59 0.0 0 0 127.44 37.53
  L 127.44 104.05
  A 0.59 0.59 0.0 0 0 128.03 104.64
  L 138.57 104.64
  A 0.59 0.59 0.0 0 0 139.16 104.05
  L 139.16 37.53
  Z"
/>
<rect fill="#eeb550" x="127.44" y="36.94" width="11.72" height="67.70" rx="0.59"/>
<path fill="#191913" d="
  M 57.16 56.89
  C 62.99 56.88 67.45 56.43 71.55 57.69
  Q 83.03 61.25 86.93 71.85
  Q 88.41 75.88 88.40 83.79
  Q 88.37 107.13 88.35 107.45
  C 88.23 109.77 86.73 110.86 84.27 110.90
  Q 82.42 110.93 74.40 110.94
  A 0.58 0.57 -90.0 0 0 73.83 111.52
  Q 73.89 116.65 73.77 120.76
  Q 73.70 123.29 71.25 123.51
  Q 70.88 123.54 57.32 123.57
  Q 43.76 123.61 43.39 123.58
  Q 40.94 123.37 40.86 120.84
  Q 40.72 116.73 40.75 111.60
  A 0.58 0.57 89.7 0 0 40.18 111.02
  Q 32.16 111.05 30.31 111.03
  C 27.85 111.00 26.34 109.92 26.21 107.60
  Q 26.19 107.28 26.05 83.94
  Q 26.00 76.03 27.46 72.00
  Q 31.31 61.38 42.77 57.76
  C 46.86 56.48 51.33 56.91 57.16 56.89
  Z
  M 57.46 117.10
  Q 66.36 117.07 66.78 117.07
  A 0.42 0.42 0.0 0 0 67.20 116.65
  L 67.20 88.88
  A 3.04 3.03 90.0 0 1 70.23 85.84
  L 70.63 85.84
  A 3.20 3.20 0.0 0 1 73.83 89.04
  L 73.83 103.98
  A 0.60 0.60 0.0 0 0 74.43 104.58
  L 81.57 104.58
  A 0.64 0.63 89.1 0 0 82.20 103.92
  Q 82.01 98.44 82.13 81.23
  Q 82.22 67.74 70.16 63.85
  C 66.54 62.69 62.26 63.12 57.29 63.13
  C 52.32 63.15 48.04 62.75 44.43 63.94
  Q 32.39 67.90 32.57 81.39
  Q 32.80 98.60 32.64 104.08
  A 0.64 0.63 -89.5 0 0 33.28 104.74
  L 40.42 104.69
  A 0.60 0.60 0.0 0 0 41.01 104.09
  L 40.92 89.15
  A 3.20 3.20 0.0 0 1 44.10 85.93
  L 44.50 85.92
  A 3.04 3.03 89.6 0 1 47.55 88.94
  L 47.73 116.71
  A 0.42 0.42 0.0 0 0 48.15 117.13
  Q 48.57 117.13 57.46 117.10
  Z"
/>
<path fill="#191913" d="
  M 118.86 108.46
  A 2.56 2.56 0.0 0 1 116.30 111.02
  L 97.92 111.02
  A 2.56 2.56 0.0 0 1 95.36 108.46
  L 95.36 61.24
  A 2.56 2.56 0.0 0 1 97.92 58.68
  L 116.30 58.68
  A 2.56 2.56 0.0 0 1 118.86 61.24
  L 118.86 108.46
  Z
  M 112.25 65.45
  A 0.43 0.43 0.0 0 0 111.82 65.02
  L 101.66 65.02
  A 0.43 0.43 0.0 0 0 101.23 65.45
  L 101.23 104.21
  A 0.43 0.43 0.0 0 0 101.66 104.64
  L 111.82 104.64
  A 0.43 0.43 0.0 0 0 112.25 104.21
  L 112.25 65.45
  Z"
/>
<path fill="#eeb550" d="
  M 57.29 63.13
  C 62.26 63.12 66.54 62.69 70.16 63.85
  Q 82.22 67.74 82.13 81.23
  Q 82.01 98.44 82.20 103.92
  A 0.64 0.63 89.1 0 1 81.57 104.58
  L 74.43 104.58
  A 0.60 0.60 0.0 0 1 73.83 103.98
  L 73.83 89.04
  A 3.20 3.20 0.0 0 0 70.63 85.84
  L 70.23 85.84
  A 3.04 3.03 90.0 0 0 67.20 88.88
  L 67.20 116.65
  A 0.42 0.42 0.0 0 1 66.78 117.07
  Q 66.36 117.07 57.46 117.10
  Q 48.57 117.13 48.15 117.13
  A 0.42 0.42 0.0 0 1 47.73 116.71
  L 47.55 88.94
  A 3.04 3.03 89.6 0 0 44.50 85.92
  L 44.10 85.93
  A 3.20 3.20 0.0 0 0 40.92 89.15
  L 41.01 104.09
  A 0.60 0.60 0.0 0 1 40.42 104.69
  L 33.28 104.74
  A 0.64 0.63 -89.5 0 1 32.64 104.08
  Q 32.80 98.60 32.57 81.39
  Q 32.39 67.90 44.43 63.94
  C 48.04 62.75 52.32 63.15 57.29 63.13
  Z"
/>
<rect fill="#eeb550" x="101.23" y="65.02" width="11.02" height="39.62" rx="0.43"/>
</svg>
