<?xml version="1.0" encoding="UTF-8" standalone="no"?>
<!DOCTYPE svg PUBLIC "-//W3C//DTD SVG 1.1//EN" "http://www.w3.org/Graphics/SVG/1.1/DTD/svg11.dtd">
<svg xmlns="http://www.w3.org/2000/svg" version="1.1" viewBox="0.00 0.00 146.00 184.00">
<g stroke-width="2.00" fill="none" stroke-linecap="butt">
<path stroke="#884441" vector-effect="non-scaling-stroke" d="
  M 95.02 59.73
  Q 100.33 55.63 101.37 49.58
  Q 101.46 49.06 101.92 48.78
  Q 102.20 48.60 102.83 48.46
  C 107.01 47.53 106.35 40.78 106.13 37.38
  Q 105.85 32.76 102.63 31.98
  A 1.51 1.49 85.6 0 1 101.59 31.08
  C 99.19 25.01 97.19 20.63 91.66 16.87
  C 87.18 13.82 79.40 10.73 73.82 10.78
  Q 63.37 10.86 53.99 17.23
  C 49.22 20.46 46.95 25.20 44.97 30.58
  A 2.09 2.09 0.0 0 1 44.24 31.54
  L 42.29 32.96
  A 4.18 4.18 0.0 0 0 40.60 35.81
  C 40.19 39.02 39.41 46.40 43.05 48.20
  Q 43.86 48.60 44.33 48.95
  A 1.45 1.43 -77.1 0 1 44.89 49.86
  C 45.55 53.75 47.34 57.25 50.78 59.52
  A 0.47 0.47 0.0 0 1 50.52 60.38
  Q 44.11 60.35 43.81 60.37
  C 40.69 60.60 39.48 62.32 37.50 63.87
  Q 36.94 64.30 34.41 64.87
  Q 24.34 67.11 19.23 76.22
  Q 15.59 82.71 15.54 86.89
  Q 15.19 113.46 15.23 113.94
  A 3.97 3.64 -42.5 0 1 15.13 115.10
  Q 15.07 115.37 14.20 117.25
  C 11.93 122.13 13.07 132.17 19.77 132.72
  C 22.08 132.92 23.31 130.93 22.74 128.98
  A 1.81 1.81 0.0 0 0 21.96 127.94
  C 14.48 123.23 22.69 112.76 28.14 116.91
  Q 34.54 121.79 30.01 127.99
  C 27.26 131.77 33.29 134.96 35.77 130.21
  Q 39.55 122.97 35.49 115.92
  A 4.50 4.50 0.0 0 1 34.89 113.83
  Q 34.81 110.70 34.86 97.25
  Q 34.87 94.10 35.92 90.80
  A 0.21 0.21 0.0 0 1 36.30 90.76
  Q 36.82 91.65 37.02 92.75
  C 38.16 99.08 38.79 106.93 40.41 113.74
  C 41.37 117.77 43.36 120.92 45.66 123.91
  A 1.72 1.72 0.0 0 1 45.93 125.47
  C 44.27 130.63 42.94 135.29 42.71 140.92
  Q 42.37 148.90 41.68 154.65
  A 0.64 0.63 88.1 0 1 41.18 155.19
  C 35.87 156.30 32.05 161.87 31.11 166.79
  C 30.66 169.12 31.13 173.10 33.92 173.58
  Q 34.55 173.68 37.60 173.69
  Q 53.64 173.71 64.76 173.63
  A 2.84 2.84 0.0 0 0 67.49 171.49
  C 69.05 165.33 64.70 159.93 64.69 154.01
  Q 64.66 139.98 64.95 126.24
  A 0.54 0.54 0.0 0 1 65.47 125.71
  L 80.51 125.32
  A 0.92 0.91 88.7 0 1 81.44 126.22
  Q 81.59 135.58 82.03 153.50
  Q 82.12 156.99 80.57 161.58
  C 79.71 164.12 77.31 173.56 81.93 173.64
  Q 91.47 173.79 111.19 173.60
  A 2.77 2.76 -75.4 0 0 113.58 172.19
  C 117.14 165.86 112.01 157.94 106.06 155.38
  A 1.35 1.32 88.5 0 1 105.36 154.70
  Q 104.87 153.61 104.57 151.47
  C 103.87 146.44 104.69 139.64 103.03 134.31
  Q 101.21 128.48 100.40 126.02
  A 2.67 2.66 54.9 0 1 100.83 123.52
  C 104.42 118.94 105.28 113.59 106.61 107.29
  C 107.79 101.70 108.24 95.31 109.63 89.97
  A 0.32 0.31 -49.3 0 1 110.23 89.92
  Q 111.24 92.32 111.32 95.00
  Q 111.56 104.05 111.42 113.87
  A 4.03 3.85 -35.0 0 1 111.14 115.27
  C 109.45 119.53 107.77 122.74 109.50 127.46
  C 110.23 129.43 111.29 131.78 113.01 132.39
  Q 115.97 133.44 117.10 130.78
  C 117.73 129.30 117.09 128.11 116.20 126.88
  C 111.90 120.91 119.55 112.25 124.81 117.87
  Q 127.78 121.04 125.53 125.69
  A 2.48 2.43 -9.8 0 1 125.02 126.40
  C 123.12 128.27 121.40 129.31 122.43 131.66
  A 1.37 1.33 85.5 0 0 123.30 132.42
  C 129.13 134.11 131.86 127.99 132.39 123.33
  Q 132.58 121.69 131.67 116.71
  Q 131.13 113.72 131.06 110.00
  Q 131.02 107.92 131.02 90.51
  C 131.02 77.72 123.37 66.44 110.17 64.56
  C 108.27 64.29 106.63 61.83 105.03 60.96
  A 4.91 4.85 -30.3 0 0 102.76 60.38
  L 95.22 60.33
  A 0.33 0.33 0.0 0 1 95.02 59.73"
/>
<path stroke="#802d2c" vector-effect="non-scaling-stroke" d="
  M 59.38 55.72
  L 87.12 55.68
  A 9.47 9.47 0.0 0 0 96.58 46.19
  L 96.56 37.78
  A 23.25 21.40 -0.1 0 0 73.28 16.42
  L 73.10 16.42
  A 23.25 21.40 -0.1 0 0 49.88 37.86
  L 49.90 46.27
  A 9.47 9.47 0.0 0 0 59.38 55.72"
/>
<path stroke="#802d2c" vector-effect="non-scaling-stroke" d="
  M 72.90 119.80
  Q 94.45 119.86 94.80 119.86
  A 3.29 3.27 17.0 0 0 97.49 118.44
  Q 98.98 116.28 99.60 113.28
  Q 101.31 104.96 104.38 85.78
  C 105.08 81.37 104.95 79.12 104.96 73.76
  Q 104.97 70.83 103.65 68.10
  A 2.35 2.32 77.8 0 0 101.62 66.78
  Q 100.86 66.75 73.05 66.68
  Q 45.23 66.60 44.47 66.62
  A 2.35 2.32 -77.5 0 0 42.43 67.93
  Q 41.10 70.66 41.09 73.59
  C 41.07 78.95 40.93 81.20 41.61 85.61
  Q 44.57 104.81 46.24 113.14
  Q 46.84 116.14 48.32 118.31
  A 3.29 3.27 -16.7 0 0 51.00 119.74
  Q 51.35 119.74 72.90 119.80"
/>
<path stroke="#802d2c" vector-effect="non-scaling-stroke" d="
  M 21.94 110.91
  Q 25.48 109.48 28.82 110.52
  A 0.38 0.38 0.0 0 0 29.31 110.18
  Q 29.79 102.33 29.72 94.00
  C 29.68 89.73 32.26 86.09 35.07 83.06
  A 1.63 1.63 0.0 0 0 35.51 81.97
  L 35.70 70.96
  A 0.65 0.65 0.0 0 0 34.85 70.33
  C 25.10 73.47 21.53 81.55 21.24 91.77
  Q 20.84 105.66 21.09 110.37
  A 0.62 0.62 0.0 0 0 21.94 110.91"
/>
<path stroke="#802d2c" vector-effect="non-scaling-stroke" d="
  M 110.37 70.66
  L 110.64 81.24
  A 2.57 2.54 21.2 0 0 111.44 83.02
  Q 117.17 88.40 117.06 96.44
  Q 116.91 106.75 117.13 109.96
  A 0.51 0.51 0.0 0 0 117.64 110.44
  L 124.99 110.44
  A 0.31 0.30 -89.0 0 0 125.29 110.14
  Q 125.56 98.48 125.29 90.52
  C 124.97 81.04 120.32 72.78 110.85 70.28
  A 0.38 0.38 0.0 0 0 110.37 70.66"
/>
<path stroke="#802d2c" vector-effect="non-scaling-stroke" d="
  M 47.24 155.01
  L 58.43 155.83
  A 0.22 0.22 0.0 0 0 58.66 155.63
  L 58.69 155.32
  A 29.41 2.47 -85.8 0 0 58.38 125.81
  L 51.68 125.31
  A 29.41 2.47 -85.8 0 0 47.06 154.46
  L 47.04 154.77
  A 0.22 0.22 0.0 0 0 47.24 155.01"
/>
<path stroke="#802d2c" vector-effect="non-scaling-stroke" d="
  M 86.85 126.45
  L 87.59 154.79
  A 0.76 0.75 88.5 0 0 88.36 155.53
  L 99.32 155.24
  A 0.51 0.50 85.5 0 0 99.81 154.66
  C 98.53 145.16 98.31 135.07 94.81 126.14
  A 1.20 1.20 0.0 0 0 93.67 125.39
  L 87.71 125.54
  A 0.89 0.89 0.0 0 0 86.85 126.45"
/>
<path stroke="#802d2c" vector-effect="non-scaling-stroke" d="
  M 37.88 168.89
  L 61.54 168.73
  A 0.55 0.55 0.0 0 0 62.08 168.17
  L 62.08 167.32
  A 6.76 4.66 89.6 0 0 57.37 160.60
  L 41.93 160.70
  A 6.76 4.66 89.6 0 0 37.32 167.50
  L 37.32 168.35
  A 0.55 0.55 0.0 0 0 37.88 168.89"
/>
<path stroke="#802d2c" vector-effect="non-scaling-stroke" d="
  M 85.68 168.73
  L 107.94 168.89
  A 0.63 0.63 0.0 0 0 108.58 168.26
  L 108.59 166.48
  A 5.77 4.33 -89.6 0 0 104.30 160.68
  L 89.44 160.58
  A 5.77 4.33 -89.6 0 0 85.07 166.32
  L 85.06 168.10
  A 0.63 0.63 0.0 0 0 85.68 168.73"
/>
<path stroke="#f05d5a" vector-effect="non-scaling-stroke" d="
  M 73.02 50.94
  C 81.13 50.88 88.95 50.99 91.52 41.64
  A 3.65 3.56 53.4 0 0 91.65 40.68
  C 91.63 34.29 90.97 28.94 85.27 25.13
  C 80.99 22.28 77.69 21.92 72.79 21.95
  C 67.89 21.99 64.60 22.40 60.37 25.32
  C 54.72 29.22 54.15 34.58 54.23 40.97
  A 3.65 3.56 -54.2 0 0 54.37 41.93
  C 57.08 51.24 64.90 51.01 73.02 50.94"
/>
<path stroke="#884441" vector-effect="non-scaling-stroke" d="
  M 68.86 35.76
  A 5.33 5.33 0.0 0 0 63.53 30.43
  A 5.33 5.33 0.0 0 0 58.20 35.76
  A 5.33 5.33 0.0 0 0 63.53 41.09
  A 5.33 5.33 0.0 0 0 68.86 35.76"
/>
<path stroke="#884441" vector-effect="non-scaling-stroke" d="
  M 88.09 35.95
  A 5.27 5.27 0.0 0 0 82.82 30.68
  A 5.27 5.27 0.0 0 0 77.55 35.95
  A 5.27 5.27 0.0 0 0 82.82 41.22
  A 5.27 5.27 0.0 0 0 88.09 35.95"
/>
</g>
<path fill="#f8746e" d="
  M 146.00 0.00
  L 146.00 184.00
  L 0.00 184.00
  L 0.00 0.00
  L 146.00 0.00
  Z
  M 95.02 59.73
  Q 100.33 55.63 101.37 49.58
  Q 101.46 49.06 101.92 48.78
  Q 102.20 48.60 102.83 48.46
  C 107.01 47.53 106.35 40.78 106.13 37.38
  Q 105.85 32.76 102.63 31.98
  A 1.51 1.49 85.6 0 1 101.59 31.08
  C 99.19 25.01 97.19 20.63 91.66 16.87
  C 87.18 13.82 79.40 10.73 73.82 10.78
  Q 63.37 10.86 53.99 17.23
  C 49.22 20.46 46.95 25.20 44.97 30.58
  A 2.09 2.09 0.0 0 1 44.24 31.54
  L 42.29 32.96
  A 4.18 4.18 0.0 0 0 40.60 35.81
  C 40.19 39.02 39.41 46.40 43.05 48.20
  Q 43.86 48.60 44.33 48.95
  A 1.45 1.43 -77.1 0 1 44.89 49.86
  C 45.55 53.75 47.34 57.25 50.78 59.52
  A 0.47 0.47 0.0 0 1 50.52 60.38
  Q 44.11 60.35 43.81 60.37
  C 40.69 60.60 39.48 62.32 37.50 63.87
  Q 36.94 64.30 34.41 64.87
  Q 24.34 67.11 19.23 76.22
  Q 15.59 82.71 15.54 86.89
  Q 15.19 113.46 15.23 113.94
  A 3.97 3.64 -42.5 0 1 15.13 115.10
  Q 15.07 115.37 14.20 117.25
  C 11.93 122.13 13.07 132.17 19.77 132.72
  C 22.08 132.92 23.31 130.93 22.74 128.98
  A 1.81 1.81 0.0 0 0 21.96 127.94
  C 14.48 123.23 22.69 112.76 28.14 116.91
  Q 34.54 121.79 30.01 127.99
  C 27.26 131.77 33.29 134.96 35.77 130.21
  Q 39.55 122.97 35.49 115.92
  A 4.50 4.50 0.0 0 1 34.89 113.83
  Q 34.81 110.70 34.86 97.25
  Q 34.87 94.10 35.92 90.80
  A 0.21 0.21 0.0 0 1 36.30 90.76
  Q 36.82 91.65 37.02 92.75
  C 38.16 99.08 38.79 106.93 40.41 113.74
  C 41.37 117.77 43.36 120.92 45.66 123.91
  A 1.72 1.72 0.0 0 1 45.93 125.47
  C 44.27 130.63 42.94 135.29 42.71 140.92
  Q 42.37 148.90 41.68 154.65
  A 0.64 0.63 88.1 0 1 41.18 155.19
  C 35.87 156.30 32.05 161.87 31.11 166.79
  C 30.66 169.12 31.13 173.10 33.92 173.58
  Q 34.55 173.68 37.60 173.69
  Q 53.64 173.71 64.76 173.63
  A 2.84 2.84 0.0 0 0 67.49 171.49
  C 69.05 165.33 64.70 159.93 64.69 154.01
  Q 64.66 139.98 64.95 126.24
  A 0.54 0.54 0.0 0 1 65.47 125.71
  L 80.51 125.32
  A 0.92 0.91 88.7 0 1 81.44 126.22
  Q 81.59 135.58 82.03 153.50
  Q 82.12 156.99 80.57 161.58
  C 79.71 164.12 77.31 173.56 81.93 173.64
  Q 91.47 173.79 111.19 173.60
  A 2.77 2.76 -75.4 0 0 113.58 172.19
  C 117.14 165.86 112.01 157.94 106.06 155.38
  A 1.35 1.32 88.5 0 1 105.36 154.70
  Q 104.87 153.61 104.57 151.47
  C 103.87 146.44 104.69 139.64 103.03 134.31
  Q 101.21 128.48 100.40 126.02
  A 2.67 2.66 54.9 0 1 100.83 123.52
  C 104.42 118.94 105.28 113.59 106.61 107.29
  C 107.79 101.70 108.24 95.31 109.63 89.97
  A 0.32 0.31 -49.3 0 1 110.23 89.92
  Q 111.24 92.32 111.32 95.00
  Q 111.56 104.05 111.42 113.87
  A 4.03 3.85 -35.0 0 1 111.14 115.27
  C 109.45 119.53 107.77 122.74 109.50 127.46
  C 110.23 129.43 111.29 131.78 113.01 132.39
  Q 115.97 133.44 117.10 130.78
  C 117.73 129.30 117.09 128.11 116.20 126.88
  C 111.90 120.91 119.55 112.25 124.81 117.87
  Q 127.78 121.04 125.53 125.69
  A 2.48 2.43 -9.8 0 1 125.02 126.40
  C 123.12 128.27 121.40 129.31 122.43 131.66
  A 1.37 1.33 85.5 0 0 123.30 132.42
  C 129.13 134.11 131.86 127.99 132.39 123.33
  Q 132.58 121.69 131.67 116.71
  Q 131.13 113.72 131.06 110.00
  Q 131.02 107.92 131.02 90.51
  C 131.02 77.72 123.37 66.44 110.17 64.56
  C 108.27 64.29 106.63 61.83 105.03 60.96
  A 4.91 4.85 -30.3 0 0 102.76 60.38
  L 95.22 60.33
  A 0.33 0.33 0.0 0 1 95.02 59.73
  Z"
/>
<path fill="#181413" d="
  M 95.02 59.73
  A 0.33 0.33 0.0 0 0 95.22 60.33
  L 102.76 60.38
  A 4.91 4.85 -30.3 0 1 105.03 60.96
  C 106.63 61.83 108.27 64.29 110.17 64.56
  C 123.37 66.44 131.02 77.72 131.02 90.51
  Q 131.02 107.92 131.06 110.00
  Q 131.13 113.72 131.67 116.71
  Q 132.58 121.69 132.39 123.33
  C 131.86 127.99 129.13 134.11 123.30 132.42
  A 1.37 1.33 85.5 0 1 122.43 131.66
  C 121.40 129.31 123.12 128.27 125.02 126.40
  A 2.48 2.43 -9.8 0 0 125.53 125.69
  Q 127.78 121.04 124.81 117.87
  C 119.55 112.25 111.90 120.91 116.20 126.88
  C 117.09 128.11 117.73 129.30 117.10 130.78
  Q 115.97 133.44 113.01 132.39
  C 111.29 131.78 110.23 129.43 109.50 127.46
  C 107.77 122.74 109.45 119.53 111.14 115.27
  A 4.03 3.85 -35.0 0 0 111.42 113.87
  Q 111.56 104.05 111.32 95.00
  Q 111.24 92.32 110.23 89.92
  A 0.32 0.31 -49.3 0 0 109.63 89.97
  C 108.24 95.31 107.79 101.70 106.61 107.29
  C 105.28 113.59 104.42 118.94 100.83 123.52
  A 2.67 2.66 54.9 0 0 100.40 126.02
  Q 101.21 128.48 103.03 134.31
  C 104.69 139.64 103.87 146.44 104.57 151.47
  Q 104.87 153.61 105.36 154.70
  A 1.35 1.32 88.5 0 0 106.06 155.38
  C 112.01 157.94 117.14 165.86 113.58 172.19
  A 2.77 2.76 -75.4 0 1 111.19 173.60
  Q 91.47 173.79 81.93 173.64
  C 77.31 173.56 79.71 164.12 80.57 161.58
  Q 82.12 156.99 82.03 153.50
  Q 81.59 135.58 81.44 126.22
  A 0.92 0.91 88.7 0 0 80.51 125.32
  L 65.47 125.71
  A 0.54 0.54 0.0 0 0 64.95 126.24
  Q 64.66 139.98 64.69 154.01
  C 64.70 159.93 69.05 165.33 67.49 171.49
  A 2.84 2.84 0.0 0 1 64.76 173.63
  Q 53.64 173.71 37.60 173.69
  Q 34.55 173.68 33.92 173.58
  C 31.13 173.10 30.66 169.12 31.11 166.79
  C 32.05 161.87 35.87 156.30 41.18 155.19
  A 0.64 0.63 88.1 0 0 41.68 154.65
  Q 42.37 148.90 42.71 140.92
  C 42.94 135.29 44.27 130.63 45.93 125.47
  A 1.72 1.72 0.0 0 0 45.66 123.91
  C 43.36 120.92 41.37 117.77 40.41 113.74
  C 38.79 106.93 38.16 99.08 37.02 92.75
  Q 36.82 91.65 36.30 90.76
  A 0.21 0.21 0.0 0 0 35.92 90.80
  Q 34.87 94.10 34.86 97.25
  Q 34.81 110.70 34.89 113.83
  A 4.50 4.50 0.0 0 0 35.49 115.92
  Q 39.55 122.97 35.77 130.21
  C 33.29 134.96 27.26 131.77 30.01 127.99
  Q 34.54 121.79 28.14 116.91
  C 22.69 112.76 14.48 123.23 21.96 127.94
  A 1.81 1.81 0.0 0 1 22.74 128.98
  C 23.31 130.93 22.08 132.92 19.77 132.72
  C 13.07 132.17 11.93 122.13 14.20 117.25
  Q 15.07 115.37 15.13 115.10
  A 3.97 3.64 -42.5 0 0 15.23 113.94
  Q 15.19 113.46 15.54 86.89
  Q 15.59 82.71 19.23 76.22
  Q 24.34 67.11 34.41 64.87
  Q 36.94 64.30 37.50 63.87
  C 39.48 62.32 40.69 60.60 43.81 60.37
  Q 44.11 60.35 50.52 60.38
  A 0.47 0.47 0.0 0 0 50.78 59.52
  C 47.34 57.25 45.55 53.75 44.89 49.86
  A 1.45 1.43 -77.1 0 0 44.33 48.95
  Q 43.86 48.60 43.05 48.20
  C 39.41 46.40 40.19 39.02 40.60 35.81
  A 4.18 4.18 0.0 0 1 42.29 32.96
  L 44.24 31.54
  A 2.09 2.09 0.0 0 0 44.97 30.58
  C 46.95 25.20 49.22 20.46 53.99 17.23
  Q 63.37 10.86 73.82 10.78
  C 79.40 10.73 87.18 13.82 91.66 16.87
  C 97.19 20.63 99.19 25.01 101.59 31.08
  A 1.51 1.49 85.6 0 0 102.63 31.98
  Q 105.85 32.76 106.13 37.38
  C 106.35 40.78 107.01 47.53 102.83 48.46
  Q 102.20 48.60 101.92 48.78
  Q 101.46 49.06 101.37 49.58
  Q 100.33 55.63 95.02 59.73
  Z
  M 59.38 55.72
  L 87.12 55.68
  A 9.47 9.47 0.0 0 0 96.58 46.19
  L 96.56 37.78
  A 23.25 21.40 -0.1 0 0 73.28 16.42
  L 73.10 16.42
  A 23.25 21.40 -0.1 0 0 49.88 37.86
  L 49.90 46.27
  A 9.47 9.47 0.0 0 0 59.38 55.72
  Z
  M 72.90 119.80
  Q 94.45 119.86 94.80 119.86
  A 3.29 3.27 17.0 0 0 97.49 118.44
  Q 98.98 116.28 99.60 113.28
  Q 101.31 104.96 104.38 85.78
  C 105.08 81.37 104.95 79.12 104.96 73.76
  Q 104.97 70.83 103.65 68.10
  A 2.35 2.32 77.8 0 0 101.62 66.78
  Q 100.86 66.75 73.05 66.68
  Q 45.23 66.60 44.47 66.62
  A 2.35 2.32 -77.5 0 0 42.43 67.93
  Q 41.10 70.66 41.09 73.59
  C 41.07 78.95 40.93 81.20 41.61 85.61
  Q 44.57 104.81 46.24 113.14
  Q 46.84 116.14 48.32 118.31
  A 3.29 3.27 -16.7 0 0 51.00 119.74
  Q 51.35 119.74 72.90 119.80
  Z
  M 21.94 110.91
  Q 25.48 109.48 28.82 110.52
  A 0.38 0.38 0.0 0 0 29.31 110.18
  Q 29.79 102.33 29.72 94.00
  C 29.68 89.73 32.26 86.09 35.07 83.06
  A 1.63 1.63 0.0 0 0 35.51 81.97
  L 35.70 70.96
  A 0.65 0.65 0.0 0 0 34.85 70.33
  C 25.10 73.47 21.53 81.55 21.24 91.77
  Q 20.84 105.66 21.09 110.37
  A 0.62 0.62 0.0 0 0 21.94 110.91
  Z
  M 110.37 70.66
  L 110.64 81.24
  A 2.57 2.54 21.2 0 0 111.44 83.02
  Q 117.17 88.40 117.06 96.44
  Q 116.91 106.75 117.13 109.96
  A 0.51 0.51 0.0 0 0 117.64 110.44
  L 124.99 110.44
  A 0.31 0.30 -89.0 0 0 125.29 110.14
  Q 125.56 98.48 125.29 90.52
  C 124.97 81.04 120.32 72.78 110.85 70.28
  A 0.38 0.38 0.0 0 0 110.37 70.66
  Z
  M 47.24 155.01
  L 58.43 155.83
  A 0.22 0.22 0.0 0 0 58.66 155.63
  L 58.69 155.32
  A 29.41 2.47 -85.8 0 0 58.38 125.81
  L 51.68 125.31
  A 29.41 2.47 -85.8 0 0 47.06 154.46
  L 47.04 154.77
  A 0.22 0.22 0.0 0 0 47.24 155.01
  Z
  M 86.85 126.45
  L 87.59 154.79
  A 0.76 0.75 88.5 0 0 88.36 155.53
  L 99.32 155.24
  A 0.51 0.50 85.5 0 0 99.81 154.66
  C 98.53 145.16 98.31 135.07 94.81 126.14
  A 1.20 1.20 0.0 0 0 93.67 125.39
  L 87.71 125.54
  A 0.89 0.89 0.0 0 0 86.85 126.45
  Z
  M 37.88 168.89
  L 61.54 168.73
  A 0.55 0.55 0.0 0 0 62.08 168.17
  L 62.08 167.32
  A 6.76 4.66 89.6 0 0 57.37 160.60
  L 41.93 160.70
  A 6.76 4.66 89.6 0 0 37.32 167.50
  L 37.32 168.35
  A 0.55 0.55 0.0 0 0 37.88 168.89
  Z
  M 85.68 168.73
  L 107.94 168.89
  A 0.63 0.63 0.0 0 0 108.58 168.26
  L 108.59 166.48
  A 5.77 4.33 -89.6 0 0 104.30 160.68
  L 89.44 160.58
  A 5.77 4.33 -89.6 0 0 85.07 166.32
  L 85.06 168.10
  A 0.63 0.63 0.0 0 0 85.68 168.73
  Z"
/>
<path fill="#e74645" d="
  M 59.38 55.72
  A 9.47 9.47 0.0 0 1 49.90 46.27
  L 49.88 37.86
  A 23.25 21.40 -0.1 0 1 73.10 16.42
  L 73.28 16.42
  A 23.25 21.40 -0.1 0 1 96.56 37.78
  L 96.58 46.19
  A 9.47 9.47 0.0 0 1 87.12 55.68
  L 59.38 55.72
  Z
  M 73.02 50.94
  C 81.13 50.88 88.95 50.99 91.52 41.64
  A 3.65 3.56 53.4 0 0 91.65 40.68
  C 91.63 34.29 90.97 28.94 85.27 25.13
  C 80.99 22.28 77.69 21.92 72.79 21.95
  C 67.89 21.99 64.60 22.40 60.37 25.32
  C 54.72 29.22 54.15 34.58 54.23 40.97
  A 3.65 3.56 -54.2 0 0 54.37 41.93
  C 57.08 51.24 64.90 51.01 73.02 50.94
  Z"
/>
<path fill="#f8746e" d="
  M 72.79 21.95
  C 77.69 21.92 80.99 22.28 85.27 25.13
  C 90.97 28.94 91.63 34.29 91.65 40.68
  A 3.65 3.56 53.4 0 1 91.52 41.64
  C 88.95 50.99 81.13 50.88 73.02 50.94
  C 64.90 51.01 57.08 51.24 54.37 41.93
  A 3.65 3.56 -54.2 0 1 54.23 40.97
  C 54.15 34.58 54.72 29.22 60.37 25.32
  C 64.60 22.40 67.89 21.99 72.79 21.95
  Z
  M 68.86 35.76
  A 5.33 5.33 0.0 0 0 63.53 30.43
  A 5.33 5.33 0.0 0 0 58.20 35.76
  A 5.33 5.33 0.0 0 0 63.53 41.09
  A 5.33 5.33 0.0 0 0 68.86 35.76
  Z
  M 88.09 35.95
  A 5.27 5.27 0.0 0 0 82.82 30.68
  A 5.27 5.27 0.0 0 0 77.55 35.95
  A 5.27 5.27 0.0 0 0 82.82 41.22
  A 5.27 5.27 0.0 0 0 88.09 35.95
  Z"
/>
<circle fill="#181413" cx="63.53" cy="35.76" r="5.33"/>
<circle fill="#181413" cx="82.82" cy="35.95" r="5.27"/>
<path fill="#e74645" d="
  M 73.05 66.68
  Q 100.86 66.75 101.62 66.78
  A 2.35 2.32 77.8 0 1 103.65 68.10
  Q 104.97 70.83 104.96 73.76
  C 104.95 79.12 105.08 81.37 104.38 85.78
  Q 101.31 104.96 99.60 113.28
  Q 98.98 116.28 97.49 118.44
  A 3.29 3.27 17.0 0 1 94.80 119.86
  Q 94.45 119.86 72.90 119.80
  Q 51.35 119.74 51.00 119.74
  A 3.29 3.27 -16.7 0 1 48.32 118.31
  Q 46.84 116.14 46.24 113.14
  Q 44.57 104.81 41.61 85.61
  C 40.93 81.20 41.07 78.95 41.09 73.59
  Q 41.10 70.66 42.43 67.93
  A 2.35 2.32 -77.5 0 1 44.47 66.62
  Q 45.23 66.60 73.05 66.68
  Z"
/>
<path fill="#e74645" d="
  M 21.09 110.37
  Q 20.84 105.66 21.24 91.77
  C 21.53 81.55 25.10 73.47 34.85 70.33
  A 0.65 0.65 0.0 0 1 35.70 70.96
  L 35.51 81.97
  A 1.63 1.63 0.0 0 1 35.07 83.06
  C 32.26 86.09 29.68 89.73 29.72 94.00
  Q 29.79 102.33 29.31 110.18
  A 0.38 0.38 0.0 0 1 28.82 110.52
  Q 25.48 109.48 21.94 110.91
  A 0.62 0.62 0.0 0 1 21.09 110.37
  Z"
/>
<path fill="#e74645" d="
  M 110.37 70.66
  A 0.38 0.38 0.0 0 1 110.85 70.28
  C 120.32 72.78 124.97 81.04 125.29 90.52
  Q 125.56 98.48 125.29 110.14
  A 0.31 0.30 -89.0 0 1 124.99 110.44
  L 117.64 110.44
  A 0.51 0.51 0.0 0 1 117.13 109.96
  Q 116.91 106.75 117.06 96.44
  Q 117.17 88.40 111.44 83.02
  A 2.57 2.54 21.2 0 1 110.64 81.24
  L 110.37 70.66
  Z"
/>
<path fill="#e74645" d="
  M 47.24 155.01
  A 0.22 0.22 0.0 0 1 47.04 154.77
  L 47.06 154.46
  A 29.41 2.47 -85.8 0 1 51.68 125.31
  L 58.38 125.81
  A 29.41 2.47 -85.8 0 1 58.69 155.32
  L 58.66 155.63
  A 0.22 0.22 0.0 0 1 58.43 155.83
  L 47.24 155.01
  Z"
/>
<path fill="#e74645" d="
  M 87.71 125.54
  L 93.67 125.39
  A 1.20 1.20 0.0 0 1 94.81 126.14
  C 98.31 135.07 98.53 145.16 99.81 154.66
  A 0.51 0.50 85.5 0 1 99.32 155.24
  L 88.36 155.53
  A 0.76 0.75 88.5 0 1 87.59 154.79
  L 86.85 126.45
  A 0.89 0.89 0.0 0 1 87.71 125.54
  Z"
/>
<path fill="#e74645" d="
  M 37.88 168.89
  A 0.55 0.55 0.0 0 1 37.32 168.35
  L 37.32 167.50
  A 6.76 4.66 89.6 0 1 41.93 160.70
  L 57.37 160.60
  A 6.76 4.66 89.6 0 1 62.08 167.32
  L 62.08 168.17
  A 0.55 0.55 0.0 0 1 61.54 168.73
  L 37.88 168.89
  Z"
/>
<path fill="#e74645" d="
  M 85.68 168.73
  A 0.63 0.63 0.0 0 1 85.06 168.10
  L 85.07 166.32
  A 5.77 4.33 -89.6 0 1 89.44 160.58
  L 104.30 160.68
  A 5.77 4.33 -89.6 0 1 108.59 166.48
  L 108.58 168.26
  A 0.63 0.63 0.0 0 1 107.94 168.89
  L 85.68 168.73
  Z"
/>
</svg>
