<?xml version="1.0" encoding="UTF-8" standalone="no"?>
<!DOCTYPE svg PUBLIC "-//W3C//DTD SVG 1.1//EN" "http://www.w3.org/Graphics/SVG/1.1/DTD/svg11.dtd">
<svg xmlns="http://www.w3.org/2000/svg" version="1.1" viewBox="0.00 0.00 138.00 118.00">
<g stroke-width="2.00" fill="none" stroke-linecap="butt">
<path stroke="#5a7050" vector-effect="non-scaling-stroke" d="
  M 32.29 30.51
  Q 31.94 31.94 30.46 35.21
  Q 21.81 54.40 20.23 57.72
  Q 19.59 59.07 17.88 61.01
  A 3.06 3.06 0.0 0 0 17.19 63.70
  L 18.50 69.69
  Q 18.52 69.75 18.54 69.81
  Q 23.64 82.05 36.25 82.07
  Q 45.78 82.08 51.41 74.04
  C 53.76 70.68 54.82 66.08 55.32 63.42
  A 3.07 3.06 -59.4 0 0 54.68 60.92
  Q 53.47 59.43 52.79 57.96
  Q 51.04 54.13 39.86 30.38
  A 0.44 0.44 0.0 0 1 40.25 29.75
  L 60.92 29.75
  A 0.98 0.98 0.0 0 1 61.87 30.48
  Q 63.13 35.29 67.83 37.75
  A 0.87 0.86 -76.5 0 1 68.30 38.52
  L 68.30 83.92
  A 0.54 0.53 88.3 0 1 67.80 84.46
  Q 54.40 85.32 47.95 96.94
  C 46.80 99.00 47.43 101.60 50.01 101.60
  Q 61.26 101.59 92.08 101.62
  Q 93.51 101.62 94.10 100.35
  C 95.33 97.70 92.19 93.81 90.43 92.07
  Q 83.92 85.65 74.59 84.50
  A 0.57 0.56 3.4 0 1 74.09 83.94
  L 74.09 38.41
  A 0.49 0.49 0.0 0 1 74.38 37.96
  Q 79.33 35.73 80.90 30.51
  A 1.08 1.07 -81.6 0 1 81.93 29.74
  L 102.08 29.74
  A 0.33 0.32 12.5 0 1 102.38 30.20
  L 89.08 58.77
  A 3.73 3.71 -6.2 0 1 87.95 60.17
  Q 85.25 62.21 87.20 65.11
  A 3.86 3.82 20.5 0 1 87.74 66.28
  Q 88.94 70.78 89.28 71.46
  Q 93.79 80.37 102.39 81.80
  C 111.79 83.35 120.79 78.64 123.59 69.37
  C 124.56 66.14 126.58 62.83 124.08 60.34
  Q 123.38 59.64 122.79 58.31
  Q 117.53 46.49 110.11 30.82
  A 0.69 0.68 -9.2 0 1 110.81 29.85
  C 115.07 30.34 115.18 24.07 111.69 24.07
  Q 83.62 24.08 81.10 24.05
  A 1.56 1.56 0.0 0 1 79.89 23.45
  L 76.22 18.71
  A 1.75 1.67 21.3 0 1 75.89 18.00
  L 75.18 14.81
  A 1.78 1.77 -85.3 0 0 74.10 13.53
  Q 70.97 12.27 67.38 13.50
  A 1.03 1.03 0.0 0 0 66.70 14.27
  Q 66.30 16.29 66.57 18.22
  A 1.58 1.57 -26.6 0 1 66.13 19.53
  L 61.81 23.84
  A 0.75 0.75 0.0 0 1 61.28 24.06
  Q 40.02 23.89 31.24 24.13
  C 26.79 24.26 27.17 30.02 31.79 29.89
  A 0.50 0.50 0.0 0 1 32.29 30.51"
/>
<path stroke="#3b5934" vector-effect="non-scaling-stroke" d="
  M 75.61 28.05
  A 4.31 4.31 0.0 0 0 71.30 23.74
  A 4.31 4.31 0.0 0 0 66.99 28.05
  A 4.31 4.31 0.0 0 0 71.30 32.36
  A 4.31 4.31 0.0 0 0 75.61 28.05"
/>
<path stroke="#5a7050" vector-effect="non-scaling-stroke" d="
  M 94.87 59.73
  A 0.34 0.34 0.0 0 0 95.17 60.21
  L 117.01 60.17
  A 0.34 0.34 0.0 0 0 117.32 59.69
  L 106.36 35.95
  A 0.34 0.34 0.0 0 0 105.74 35.96
  L 94.87 59.73"
/>
<path stroke="#5a7050" vector-effect="non-scaling-stroke" d="
  M 25.30 59.72
  A 0.38 0.38 0.0 0 0 25.64 60.26
  L 47.11 60.22
  A 0.38 0.38 0.0 0 0 47.45 59.68
  L 36.68 36.87
  A 0.38 0.38 0.0 0 0 35.99 36.88
  L 25.30 59.72"
/>
<path stroke="#3b5934" vector-effect="non-scaling-stroke" d="
  M 36.05 76.94
  C 42.23 76.93 47.90 72.14 48.81 65.79
  A 0.50 0.50 0.0 0 0 48.31 65.22
  Q 37.85 65.25 36.03 65.25
  Q 34.21 65.25 23.74 65.26
  A 0.50 0.50 0.0 0 0 23.25 65.83
  C 24.18 72.17 29.86 76.95 36.05 76.94"
/>
<path stroke="#3b5934" vector-effect="non-scaling-stroke" d="
  M 106.07 76.90
  C 112.23 76.90 117.90 72.14 118.81 65.81
  A 0.50 0.49 -86.0 0 0 118.32 65.24
  Q 107.89 65.25 106.07 65.24
  Q 104.25 65.24 93.82 65.24
  A 0.50 0.49 86.1 0 0 93.33 65.80
  C 94.24 72.13 99.90 76.90 106.07 76.90"
/>
<path stroke="#5a7050" vector-effect="non-scaling-stroke" d="
  M 57.05 94.09
  L 55.28 95.59
  A 0.30 0.29 -65.2 0 0 55.47 96.11
  L 86.02 96.11
  A 0.31 0.31 0.0 0 0 86.29 95.64
  Q 85.86 94.87 84.69 94.34"
/>
<path stroke="#3b5934" vector-effect="non-scaling-stroke" d="
  M 84.69 94.34
  C 76.62 87.82 65.16 87.76 57.05 94.09"
/>
<path stroke="#7aad6d" vector-effect="non-scaling-stroke" d="
  M 84.69 94.34
  L 84.28 94.92
  A 0.91 0.90 18.0 0 1 83.55 95.29
  L 58.43 95.29
  A 0.95 0.93 -18.3 0 1 57.68 94.92
  L 57.05 94.09"
/>
</g>
<path fill="#99c489" d="
  M 138.00 0.00
  L 138.00 118.00
  L 0.00 118.00
  L 0.00 0.00
  L 138.00 0.00
  Z
  M 32.29 30.51
  Q 31.94 31.94 30.46 35.21
  Q 21.81 54.40 20.23 57.72
  Q 19.59 59.07 17.88 61.01
  A 3.06 3.06 0.0 0 0 17.19 63.70
  L 18.50 69.69
  Q 18.52 69.75 18.54 69.81
  Q 23.64 82.05 36.25 82.07
  Q 45.78 82.08 51.41 74.04
  C 53.76 70.68 54.82 66.08 55.32 63.42
  A 3.07 3.06 -59.4 0 0 54.68 60.92
  Q 53.47 59.43 52.79 57.96
  Q 51.04 54.13 39.86 30.38
  A 0.44 0.44 0.0 0 1 40.25 29.75
  L 60.92 29.75
  A 0.98 0.98 0.0 0 1 61.87 30.48
  Q 63.13 35.29 67.83 37.75
  A 0.87 0.86 -76.5 0 1 68.30 38.52
  L 68.30 83.92
  A 0.54 0.53 88.3 0 1 67.80 84.46
  Q 54.40 85.32 47.95 96.94
  C 46.80 99.00 47.43 101.60 50.01 101.60
  Q 61.26 101.59 92.08 101.62
  Q 93.51 101.62 94.10 100.35
  C 95.33 97.70 92.19 93.81 90.43 92.07
  Q 83.92 85.65 74.59 84.50
  A 0.57 0.56 3.4 0 1 74.09 83.94
  L 74.09 38.41
  A 0.49 0.49 0.0 0 1 74.38 37.96
  Q 79.33 35.73 80.90 30.51
  A 1.08 1.07 -81.6 0 1 81.93 29.74
  L 102.08 29.74
  A 0.33 0.32 12.5 0 1 102.38 30.20
  L 89.08 58.77
  A 3.73 3.71 -6.2 0 1 87.95 60.17
  Q 85.25 62.21 87.20 65.11
  A 3.86 3.82 20.5 0 1 87.74 66.28
  Q 88.94 70.78 89.28 71.46
  Q 93.79 80.37 102.39 81.80
  C 111.79 83.35 120.79 78.64 123.59 69.37
  C 124.56 66.14 126.58 62.83 124.08 60.34
  Q 123.38 59.64 122.79 58.31
  Q 117.53 46.49 110.11 30.82
  A 0.69 0.68 -9.2 0 1 110.81 29.85
  C 115.07 30.34 115.18 24.07 111.69 24.07
  Q 83.62 24.08 81.10 24.05
  A 1.56 1.56 0.0 0 1 79.89 23.45
  L 76.22 18.71
  A 1.75 1.67 21.3 0 1 75.89 18.00
  L 75.18 14.81
  A 1.78 1.77 -85.3 0 0 74.10 13.53
  Q 70.97 12.27 67.38 13.50
  A 1.03 1.03 0.0 0 0 66.70 14.27
  Q 66.30 16.29 66.57 18.22
  A 1.58 1.57 -26.6 0 1 66.13 19.53
  L 61.81 23.84
  A 0.75 0.75 0.0 0 1 61.28 24.06
  Q 40.02 23.89 31.24 24.13
  C 26.79 24.26 27.17 30.02 31.79 29.89
  A 0.50 0.50 0.0 0 1 32.29 30.51
  Z"
/>
<path fill="#1a1c16" d="
  M 31.79 29.89
  C 27.17 30.02 26.79 24.26 31.24 24.13
  Q 40.02 23.89 61.28 24.06
  A 0.75 0.75 0.0 0 0 61.81 23.84
  L 66.13 19.53
  A 1.58 1.57 -26.6 0 0 66.57 18.22
  Q 66.30 16.29 66.70 14.27
  A 1.03 1.03 0.0 0 1 67.38 13.50
  Q 70.97 12.27 74.10 13.53
  A 1.78 1.77 -85.3 0 1 75.18 14.81
  L 75.89 18.00
  A 1.75 1.67 21.3 0 0 76.22 18.71
  L 79.89 23.45
  A 1.56 1.56 0.0 0 0 81.10 24.05
  Q 83.62 24.08 111.69 24.07
  C 115.18 24.07 115.07 30.34 110.81 29.85
  A 0.69 0.68 -9.2 0 0 110.11 30.82
  Q 117.53 46.49 122.79 58.31
  Q 123.38 59.64 124.08 60.34
  C 126.58 62.83 124.56 66.14 123.59 69.37
  C 120.79 78.64 111.79 83.35 102.39 81.80
  Q 93.79 80.37 89.28 71.46
  Q 88.94 70.78 87.74 66.28
  A 3.86 3.82 20.5 0 0 87.20 65.11
  Q 85.25 62.21 87.95 60.17
  A 3.73 3.71 -6.2 0 0 89.08 58.77
  L 102.38 30.20
  A 0.33 0.32 12.5 0 0 102.08 29.74
  L 81.93 29.74
  A 1.08 1.07 -81.6 0 0 80.90 30.51
  Q 79.33 35.73 74.38 37.96
  A 0.49 0.49 0.0 0 0 74.09 38.41
  L 74.09 83.94
  A 0.57 0.56 3.4 0 0 74.59 84.50
  Q 83.92 85.65 90.43 92.07
  C 92.19 93.81 95.33 97.70 94.10 100.35
  Q 93.51 101.62 92.08 101.62
  Q 61.26 101.59 50.01 101.60
  C 47.43 101.60 46.80 99.00 47.95 96.94
  Q 54.40 85.32 67.80 84.46
  A 0.54 0.53 88.3 0 0 68.30 83.92
  L 68.30 38.52
  A 0.87 0.86 -76.5 0 0 67.83 37.75
  Q 63.13 35.29 61.87 30.48
  A 0.98 0.98 0.0 0 0 60.92 29.75
  L 40.25 29.75
  A 0.44 0.44 0.0 0 0 39.86 30.38
  Q 51.04 54.13 52.79 57.96
  Q 53.47 59.43 54.68 60.92
  A 3.07 3.06 -59.4 0 1 55.32 63.42
  C 54.82 66.08 53.76 70.68 51.41 74.04
  Q 45.78 82.08 36.25 82.07
  Q 23.64 82.05 18.54 69.81
  Q 18.52 69.75 18.50 69.69
  L 17.19 63.70
  A 3.06 3.06 0.0 0 1 17.88 61.01
  Q 19.59 59.07 20.23 57.72
  Q 21.81 54.40 30.46 35.21
  Q 31.94 31.94 32.29 30.51
  A 0.50 0.50 0.0 0 0 31.79 29.89
  Z
  M 75.61 28.05
  A 4.31 4.31 0.0 0 0 71.30 23.74
  A 4.31 4.31 0.0 0 0 66.99 28.05
  A 4.31 4.31 0.0 0 0 71.30 32.36
  A 4.31 4.31 0.0 0 0 75.61 28.05
  Z
  M 94.87 59.73
  A 0.34 0.34 0.0 0 0 95.17 60.21
  L 117.01 60.17
  A 0.34 0.34 0.0 0 0 117.32 59.69
  L 106.36 35.95
  A 0.34 0.34 0.0 0 0 105.74 35.96
  L 94.87 59.73
  Z
  M 25.30 59.72
  A 0.38 0.38 0.0 0 0 25.64 60.26
  L 47.11 60.22
  A 0.38 0.38 0.0 0 0 47.45 59.68
  L 36.68 36.87
  A 0.38 0.38 0.0 0 0 35.99 36.88
  L 25.30 59.72
  Z
  M 36.05 76.94
  C 42.23 76.93 47.90 72.14 48.81 65.79
  A 0.50 0.50 0.0 0 0 48.31 65.22
  Q 37.85 65.25 36.03 65.25
  Q 34.21 65.25 23.74 65.26
  A 0.50 0.50 0.0 0 0 23.25 65.83
  C 24.18 72.17 29.86 76.95 36.05 76.94
  Z
  M 106.07 76.90
  C 112.23 76.90 117.90 72.14 118.81 65.81
  A 0.50 0.49 -86.0 0 0 118.32 65.24
  Q 107.89 65.25 106.07 65.24
  Q 104.25 65.24 93.82 65.24
  A 0.50 0.49 86.1 0 0 93.33 65.80
  C 94.24 72.13 99.90 76.90 106.07 76.90
  Z
  M 57.05 94.09
  L 55.28 95.59
  A 0.30 0.29 -65.2 0 0 55.47 96.11
  L 86.02 96.11
  A 0.31 0.31 0.0 0 0 86.29 95.64
  Q 85.86 94.87 84.69 94.34
  C 76.62 87.82 65.16 87.76 57.05 94.09
  Z"
/>
<circle fill="#5b9551" cx="71.30" cy="28.05" r="4.31"/>
<path fill="#99c489" d="
  M 94.87 59.73
  L 105.74 35.96
  A 0.34 0.34 0.0 0 1 106.36 35.95
  L 117.32 59.69
  A 0.34 0.34 0.0 0 1 117.01 60.17
  L 95.17 60.21
  A 0.34 0.34 0.0 0 1 94.87 59.73
  Z"
/>
<path fill="#99c489" d="
  M 25.30 59.72
  L 35.99 36.88
  A 0.38 0.38 0.0 0 1 36.68 36.87
  L 47.45 59.68
  A 0.38 0.38 0.0 0 1 47.11 60.22
  L 25.64 60.26
  A 0.38 0.38 0.0 0 1 25.30 59.72
  Z"
/>
<path fill="#5b9551" d="
  M 36.03 65.25
  Q 37.85 65.25 48.31 65.22
  A 0.50 0.50 0.0 0 1 48.81 65.79
  C 47.90 72.14 42.23 76.93 36.05 76.94
  C 29.86 76.95 24.18 72.17 23.25 65.83
  A 0.50 0.50 0.0 0 1 23.74 65.26
  Q 34.21 65.25 36.03 65.25
  Z"
/>
<path fill="#5b9551" d="
  M 106.07 76.90
  C 99.90 76.90 94.24 72.13 93.33 65.80
  A 0.50 0.49 86.1 0 1 93.82 65.24
  Q 104.25 65.24 106.07 65.24
  Q 107.89 65.25 118.32 65.24
  A 0.50 0.49 -86.0 0 1 118.81 65.81
  C 117.90 72.14 112.23 76.90 106.07 76.90
  Z"
/>
<path fill="#5b9551" d="
  M 84.69 94.34
  L 84.28 94.92
  A 0.91 0.90 18.0 0 1 83.55 95.29
  L 58.43 95.29
  A 0.95 0.93 -18.3 0 1 57.68 94.92
  L 57.05 94.09
  C 65.16 87.76 76.62 87.82 84.69 94.34
  Z"
/>
<path fill="#99c489" d="
  M 57.05 94.09
  L 57.68 94.92
  A 0.95 0.93 -18.3 0 0 58.43 95.29
  L 83.55 95.29
  A 0.91 0.90 18.0 0 0 84.28 94.92
  L 84.69 94.34
  Q 85.86 94.87 86.29 95.64
  A 0.31 0.31 0.0 0 1 86.02 96.11
  L 55.47 96.11
  A 0.30 0.29 -65.2 0 1 55.28 95.59
  L 57.05 94.09
  Z"
/>
</svg>
